<svg id="Layer_1" data-name="Layer 1" xmlns="http://www.w3.org/2000/svg" viewBox="0 0 352.24 76.34"><defs><style>.cls-1{fill:#333;}</style></defs><title>BLACKSERVICES</title><path class="cls-1" d="M72,117.27c-1.56-.31-3.12,0-4.37-1.35,0-.31.1-.52.1-.73A10.23,10.23,0,0,0,59.89,105a16.65,16.65,0,0,0-2.18-.1c-8.53,0-16.85,9.15-16.85,16.43,0,8.42,5.72,9.36,10.71,9.36h4.68c3.75,0,7.7.41,10.2,3.54,1.45,3.53,6.13,6,6.13,9.77,0,.94.31,2.39-.31,3.43a8.18,8.18,0,0,1,.1,1.56c0,7.08-8,17.16-14.56,17.16a35.21,35.21,0,0,1-10-1.87,19.87,19.87,0,0,1-7-5c-1.77-1.87-1.66-4.47-2.91-7.49,1.25-2.08,2.81-4.05,4.58-4.05.93,0,1.66.41,2.6,1.66.41,2.7-1.36,5.3.41,7.28,3.12,3.33,8,3.64,10.92,3.64,6.45,0,10.3-8.22,10.3-13.21,0-3.33-3-6.65-4.47-9.05a7,7,0,0,0-5.52-2.7,6.66,6.66,0,0,0-1.35.1,1.84,1.84,0,0,0-.73-.1c-1.14,0-2.08.62-2.91.62a2.24,2.24,0,0,1-1.25-.41,1.8,1.8,0,0,1-1.24.62c-1,0-1.77-1.14-2.71-1.14a1.74,1.74,0,0,0-1.35,1,15.17,15.17,0,0,1-10.5-14.56c0-4.06,3.64-10.51,6.13-13.84a19.56,19.56,0,0,1,16.43-8.21c7.18,0,14.15,5.93,16.75,12.06C73.41,113.42,73.41,115.61,72,117.27Z" transform="translate(-34.73 -99.49)"/><path class="cls-1" d="M112.62,166.67a8.45,8.45,0,0,1-4.57.94,62.15,62.15,0,0,1-8.12,2.5c-3.74,1-7.59,2.08-10.61,4.16-2.18.62-3.74-1.15-4.57-2.81-.94-7.28.21-18-.94-25.38-1.25-.83-1.25-2.29-1.77-3.53,3.23-3-.72-6.45,1-9.89.11-2.91-.83-6.86-.52-10.19.21-2.39,1-4.37,3.44-5.41,3.22,1,6.65.32,10,0,5.1-.52,10.4-1.76,15.19-.93l.41.83c1,2.18-1.56,3.12-2.49,4.06-3.23,1.35-7.39,1.45-11.34,1.76a26.51,26.51,0,0,0-8.43,1.56c-2.18,4,.73,10.4-.1,14.36.1,1.77,1.14,2.08,3.64,1.25,4.27-.94,10,.41,13.42-2.71a4.13,4.13,0,0,1,4.37,1.87c.31,4.37-4.68,3.64-7.28,5-4.16.62-9,2.8-13.73,2-.21,3.64-.21,12.48.52,16.43-.32.84.52,2.29.93,3.64,3.23-.62,6.45-1.66,9.68-2.6a90.62,90.62,0,0,1,12.16-3c1.77.1,2.19,1.35,3.12,2.6A8.57,8.57,0,0,1,112.62,166.67Z" transform="translate(-34.73 -99.49)"/><path class="cls-1" d="M153.39,171.15c-4.47-7.18-11.34-12.38-14.46-20.18-2.08-1.77-3.22-8.74-5.41-10.3,0,1.67.52,6.24.52,8.74.21,4.47-2.6,11.13.21,15.08-1.45,2.29.21,5.82,0,8.32-.1,1.46-.83,2.6-3.22,3-1.35-.11-2.39-1.56-3.54-2.19.21-8.84.83-28.18.83-34.42,0-2.5-2.39-1.25.11-6.56-.42-2.39-.94-7.8-.42-10.29-1.14-2.6,0-5.93-.94-8.63-2.07.52-4.47,2.7-6.44.52-.11-2.08-.21-4.68,2.29-5.31,1.87,0,3.22-1.35,4.68-2.91-1.36-2.39.1-4.47,2.7-4.89a4.32,4.32,0,0,1,4.06,0c.31.83-.84,4.16-.32,4.89a36.28,36.28,0,0,1,7.08-1.25,26,26,0,0,1,11.64,2.81l1.46,1.35c-.21,2.39,1.35,3.85,1.56,6.76.1,2.5-.94,6.45-2.7,8L148.6,130c-5.3,3.85-5.4,2.6-10.71,6.55,2.29,5,4.06,9.78,6.55,13.84a71.81,71.81,0,0,0,10.92,13.72c.63.73,4.06,3.44,4.06,4.27C160.56,172.29,156.82,173,153.39,171.15Zm-3.33-57.41-4.47-3.85c-3-1-9,.93-12.59,2-.1.94-.72,5.52.52,6.56a89.77,89.77,0,0,0-.52,14.24c.42.73,1.56-1.76,2.19-1.14,5.93-2.18,12.17-4.78,14.56-10.82.1-2.28,2.08-2,.83-4.36Z" transform="translate(-34.73 -99.49)"/><path class="cls-1" d="M206.84,122.26c-3.43,6.24-6.13,12.69-7.17,19.87-1.77,5-3.75,9.67-5.51,14.35-1.88,4.89-4,9.57-5.31,14.67-1.35,1.25-.93,3.95-3.22,4.47-4.27-.83-5.62-5.93-6.35-10.09.63-1.77-1-3.12-.52-4.47-5.93-11.44-6.45-25.17-11.65-37a17.36,17.36,0,0,1-2.28-6.24c-.84-.41-.32-1.45-.32-2.39,1.05-1.46,2.92-4.47,5.31-2.7,4.06,7.48,2.39,16.32,7.17,23.61-.1.51.42,1.35-.41,1.76,2.7,5.72,3.54,12.28,6.34,18.2,2.29,1.15,1.15,4.58,3.54,5,7-13.42,10.3-28.19,14.66-42.65,4.06-4.05.42-13.83,8.84-13.62l1.46,1.87C211.32,112.59,206.32,116.34,206.84,122.26Z" transform="translate(-34.73 -99.49)"/><path class="cls-1" d="M248.34,169.38c-3.43.1-8.32-1.46-10.61,1.35-2.91.31-4.16-1.25-5.93-1.35-2.08-.11-4.37.31-6.55.41-2.6.11-5.2.32-6.55-2.91-.42-1,.93-1.35,1.35-2.08a20.72,20.72,0,0,1,5.3-.93,50.61,50.61,0,0,1,7,0c2.5-1.56-.1-2.5,1.46-4.06l-1.35-15.91L230.76,124c-1.25-2-3.64-.83-6-.41-1.56.31-3.12.52-4.47-.32-1-1.45-3.33-.83-3.64-3,.83-2,2.39-2.6,4.26-2.71,2.91-.2,6.35.73,8.84-.31,1.87-1,4.16-1.87,6.45-.83a48.13,48.13,0,0,1,10.3-.42,8.33,8.33,0,0,1,3.22.84c1.56,4.16-.94,3.84-3.22,4.47-2.39.41-8.43-1.15-9.88,1.45.62,7.91.2,16.23,2.6,23.41-.94,2-.11,15.6.93,17.36,1.25.42,6.14-.2,7.91,0a3.24,3.24,0,0,1,2.6,1.77A3.39,3.39,0,0,1,248.34,169.38Z" transform="translate(-34.73 -99.49)"/><path class="cls-1" d="M298.88,162.1c-.52,3.53-5.2,4.57-8.21,7.59-2.4,2.5-6.66,2.18-8.43,3.85a10.84,10.84,0,0,1-3.33.41c-8.52,0-13.62-3.84-16.43-9.46-2.49-4.78-4.37-8.32-4.37-17.68,0-14.25,4.58-19.87,6-26.83a15,15,0,0,0,3.22-4.48c3.85-3,10.5-6.24,14.77-6.24a18,18,0,0,1,12.37,5.1c.63,2.5,3.85,3.43,3.85,6.34,0,1.46-.93,3.44-2.91,3.44a1.67,1.67,0,0,1-1.25-.52c-3.53-3.12-3.85-8.43-10.5-8.43a17.28,17.28,0,0,0-3,.42c-14,3.43-16.95,20-16.95,31.62,0,6.76,2.08,15.91,7.07,19.34a17.41,17.41,0,0,0,6.87,1.14c6.76,0,15.39-4.05,17.57-7.9a1.81,1.81,0,0,1,1.35-.62C297.84,159.19,298.78,160.75,298.88,162.1Z" transform="translate(-34.73 -99.49)"/><path class="cls-1" d="M338.19,166.67a8.45,8.45,0,0,1-4.57.94,62.47,62.47,0,0,1-8.11,2.5c-3.75,1-7.6,2.08-10.61,4.16-2.19.62-3.75-1.15-4.58-2.81-.93-7.28.21-18-.93-25.38-1.25-.83-1.25-2.29-1.77-3.53,3.22-3-.73-6.45,1-9.89.1-2.91-.83-6.86-.52-10.19.2-2.39,1-4.37,3.43-5.41,3.22,1,6.66.32,10,0,5.1-.52,10.4-1.76,15.19-.93l.41.83c1,2.18-1.56,3.12-2.49,4.06-3.23,1.35-7.39,1.45-11.34,1.76a26.44,26.44,0,0,0-8.42,1.56c-2.19,4,.73,10.4-.11,14.36.11,1.77,1.15,2.08,3.64,1.25,4.27-.94,10,.41,13.42-2.71a4.13,4.13,0,0,1,4.37,1.87c.31,4.37-4.68,3.64-7.28,5-4.16.62-8.95,2.8-13.73,2-.21,3.64-.21,12.48.52,16.43-.31.84.52,2.29.94,3.64,3.22-.62,6.44-1.66,9.67-2.6a90.38,90.38,0,0,1,12.17-3c1.76.1,2.18,1.35,3.12,2.6A8.65,8.65,0,0,1,338.19,166.67Z" transform="translate(-34.73 -99.49)"/><path class="cls-1" d="M384.89,117.27c-1.56-.31-3.12,0-4.37-1.35,0-.31.11-.52.11-.73a10.24,10.24,0,0,0-7.8-10.19,16.88,16.88,0,0,0-2.19-.1c-8.53,0-16.85,9.15-16.85,16.43,0,8.42,5.72,9.36,10.71,9.36h4.68c3.75,0,7.7.41,10.2,3.54,1.45,3.53,6.13,6,6.13,9.77,0,.94.32,2.39-.31,3.43a7.45,7.45,0,0,1,.11,1.56c0,7.08-8,17.16-14.56,17.16a35.21,35.21,0,0,1-10-1.87,19.87,19.87,0,0,1-7-5c-1.77-1.87-1.66-4.47-2.91-7.49,1.25-2.08,2.81-4.05,4.58-4.05.93,0,1.66.41,2.6,1.66.41,2.7-1.36,5.3.41,7.28,3.12,3.33,8,3.64,10.92,3.64,6.45,0,10.3-8.22,10.3-13.21,0-3.33-3-6.65-4.47-9.05a7,7,0,0,0-5.52-2.7,6.66,6.66,0,0,0-1.35.1,1.84,1.84,0,0,0-.73-.1c-1.14,0-2.08.62-2.91.62a2.24,2.24,0,0,1-1.25-.41,1.8,1.8,0,0,1-1.24.62c-1,0-1.77-1.14-2.71-1.14a1.74,1.74,0,0,0-1.35,1,15.17,15.17,0,0,1-10.5-14.56c0-4.06,3.64-10.51,6.13-13.84a19.56,19.56,0,0,1,16.43-8.21c7.18,0,14.15,5.93,16.75,12.06C386.34,113.42,386.34,115.61,384.89,117.27Z" transform="translate(-34.73 -99.49)"/></svg>