<svg id="Layer_1" data-name="Layer 1" xmlns="http://www.w3.org/2000/svg" viewBox="0 0 176.09 45.94"><defs><style>.cls-1{fill:#333;}</style></defs><title>SMALLcameras</title><path class="cls-1" d="M202.28,162.16c-.29,2-2.9,2.55-4.58,4.23-1.33,1.4-3.71,1.22-4.7,2.15a6.12,6.12,0,0,1-1.85.23c-4.76,0-7.6-2.14-9.17-5.28a17.46,17.46,0,0,1-2.43-9.86c0-7.94,2.55-11.07,3.36-15a8.28,8.28,0,0,0,1.8-2.49c2.15-1.69,5.86-3.48,8.24-3.48a10.1,10.1,0,0,1,6.9,2.84c.35,1.39,2.14,1.91,2.14,3.54a1.79,1.79,0,0,1-1.62,1.91,1,1,0,0,1-.7-.29c-2-1.74-2.14-4.7-5.85-4.7a10.29,10.29,0,0,0-1.69.23c-7.83,1.92-9.45,11.14-9.45,17.64,0,3.77,1.16,8.87,3.94,10.78a9.66,9.66,0,0,0,3.83.64c3.77,0,8.59-2.26,9.8-4.41a1,1,0,0,1,.76-.34C201.7,160.54,202.23,161.41,202.28,162.16Z" transform="translate(-179.55 -124.23)"/><path class="cls-1" d="M228.38,169.87a1.75,1.75,0,0,1-1.16-.52c-2.43-4.41-1.74-10-3.71-14.32-.29-.06-.35-.58-.81-.58s-.52.23-.81.23a20.72,20.72,0,0,1-2.61.11h-3c-1.28,0-2.49,0-2.49.87,0,.18,0,.41,0,.58s0,.47-.58.76c-.29,4.29-1.21,7.71-1.85,11.66-.47.63-1.1,1.5-1.74,1.5-.35,0-.7-.29-1.05-1l-.63-.76c.17-.87.52-1.16.69-1.91a1.73,1.73,0,0,0-.17-.7c.06-.4.29-.75.29-1s-.06-.7-.06-1.1c.64-3.48,1-4.88,1.74-8.59a1.54,1.54,0,0,0-.52-.06c-.35,0-.7.06-1.05.06a1.17,1.17,0,0,1-1.33-1.33c0-1.45.75-2.44,1.91-2.44.29,0,.64.06.93.06a1.55,1.55,0,0,0,1.1-.35c.12-2.55,1.69-5.51,1.69-8.12a4.7,4.7,0,0,0-.24-1.56c1-.87.47-2.73.82-3.72,1-3,.81-6.78,2.32-9.45a1.57,1.57,0,0,1-.29-1c0-1,1-2.09,1.56-3,1.05.46,2.38.81,2.84,2a6,6,0,0,0-.34,2,8.28,8.28,0,0,0,1.91,4.87,2.28,2.28,0,0,0-.17,1.05c0,1.22.58,2.43.58,3.77v.23c2.14,3.6,1.33,8,3.13,11.72,0,.17-.06.29-.06.4,0,1.68,1.1,3.08,1.1,4.7v.52c1.28,2.73,1.16,6.09,2.44,9,.17,1.16,1,2.44,1,3.71a2.58,2.58,0,0,1-.35,1.28A1.75,1.75,0,0,1,228.38,169.87Zm-7.3-27.08A9.72,9.72,0,0,1,220,139.6c0-.12.06-.29.06-.41-1.22-1.27-1-4.64-1.91-6.09-1.69,5-2.61,13.17-3,18.5,2-.23,4.76.06,7.08-.29C222.06,148.53,221.19,145.57,221.08,142.79Z" transform="translate(-179.55 -124.23)"/><path class="cls-1" d="M260.57,157.23c.93,1.68,1.45,4.35.52,5.74l-2.32.47c-.87-.35-.92-1.74-.52-2.5-.23-3.07-.58-5.74-.75-8.76-1.28-1.39-.7-3.53-1.62-5a26.49,26.49,0,0,0-1.4-8.12,1.84,1.84,0,0,0-1.21,1.85c-2.15,2.09-2.67,4.87-4.82,6.9.06,2.44-3.65,2.79-2.55,5.34.35.93-.7,1.39-1.22,1.74-1.16-.41-1.56-2-2.78-2.78a27.08,27.08,0,0,1-5.51-6.56l-1.51-1.45c-1.8,1.92.41,4.64-1,6.73,0,2.73-.24,9.28-1.34,11.77a7.54,7.54,0,0,1-2.2.47c-1.34-.87-.93-1.68-.52-3,1.16-4.7,1.27-13.17,1.79-17.86.24-1.8-1.68-3.25-.23-5.05.47-.81,1.45-2.15,2.5-1.22.11,2.5,2.61,4.06,3.59,6.27a72,72,0,0,0,6,7.07c3-3,5-6.9,7.3-10.61,1-1.51.7-3.71,2.73-4.47,1.8-.69,1.56,2.09,3.31,1.45,2.31,2.61.92,7.08,2,9.86C259.18,149.52,261.33,153,260.57,157.23Z" transform="translate(-179.55 -124.23)"/><path class="cls-1" d="M284,164.71a4.64,4.64,0,0,1-2.55.52,35.12,35.12,0,0,1-4.52,1.4A19.66,19.66,0,0,0,271,169c-1.22.34-2.09-.64-2.55-1.57-.52-4.06.12-10-.52-14.15-.7-.47-.7-1.28-1-2,1.8-1.69-.4-3.6.58-5.51.06-1.63-.46-3.83-.29-5.69a3.24,3.24,0,0,1,1.92-3c1.8.58,3.71.17,5.57,0,2.84-.29,5.79-1,8.46-.53l.23.47c.58,1.22-.87,1.74-1.39,2.26-1.8.75-4.11.81-6.32,1a14.61,14.61,0,0,0-4.7.87c-1.22,2.2.41,5.8-.05,8,.05,1,.63,1.16,2,.7,2.38-.53,5.57.23,7.49-1.51a2.28,2.28,0,0,1,2.43,1c.18,2.44-2.61,2-4.06,2.79-2.32.34-5,1.56-7.65,1.1a53.48,53.48,0,0,0,.29,9.16c-.18.47.29,1.28.52,2,1.8-.35,3.59-.93,5.39-1.45a51.33,51.33,0,0,1,6.79-1.68c1,.06,1.22.75,1.74,1.45A4.79,4.79,0,0,1,284,164.71Z" transform="translate(-179.55 -124.23)"/><path class="cls-1" d="M306.74,167.21c-2.49-4-6.32-6.91-8.06-11.26-1.16-1-1.8-4.87-3-5.74,0,.93.29,3.48.29,4.87.12,2.5-1.45,6.21.12,8.41-.81,1.28.11,3.25,0,4.64-.06.82-.47,1.45-1.8,1.69-.75-.06-1.33-.87-2-1.22.11-4.93.46-15.72.46-19.2,0-1.39-1.33-.7.06-3.65a21.24,21.24,0,0,1-.23-5.75c-.64-1.45,0-3.3-.52-4.81-1.16.29-2.5,1.51-3.6.29-.06-1.16-.12-2.61,1.28-3,1,0,1.79-.75,2.61-1.62-.76-1.34.05-2.5,1.5-2.73a2.46,2.46,0,0,1,2.27,0c.17.47-.47,2.32-.18,2.73a20.3,20.3,0,0,1,3.95-.7,14.59,14.59,0,0,1,6.49,1.57l.81.75c-.11,1.34.76,2.15.87,3.77a6.65,6.65,0,0,1-1.5,4.47l-2.5,3.48c-3,2.14-3,1.45-6,3.65a73.45,73.45,0,0,0,3.65,7.72,40.13,40.13,0,0,0,6.09,7.65c.35.41,2.26,1.92,2.26,2.38C310.74,167.84,308.65,168.25,306.74,167.21Zm-1.86-32L302.39,133c-1.68-.58-5,.53-7,1.11-.06.52-.4,3.07.29,3.65a49.13,49.13,0,0,0-.29,7.95c.23.4.87-1,1.22-.64,3.31-1.22,6.79-2.67,8.12-6,.06-1.28,1.16-1.11.46-2.44Z" transform="translate(-179.55 -124.23)"/><path class="cls-1" d="M336.09,169.87a1.72,1.72,0,0,1-1.16-.52c-2.44-4.41-1.74-10-3.71-14.32-.29-.06-.35-.58-.82-.58s-.52.23-.81.23a20.72,20.72,0,0,1-2.61.11h-3c-1.27,0-2.49,0-2.49.87,0,.18.06.41.06.58s-.06.47-.58.76c-.29,4.29-1.22,7.71-1.86,11.66-.46.63-1.1,1.5-1.74,1.5-.35,0-.69-.29-1-1l-.64-.76c.17-.87.52-1.16.7-1.91a1.71,1.71,0,0,0-.18-.7c.06-.4.29-.75.29-1s-.06-.7-.06-1.1c.64-3.48,1-4.88,1.74-8.59a1.51,1.51,0,0,0-.52-.06c-.35,0-.69.06-1,.06a1.18,1.18,0,0,1-1.34-1.33c0-1.45.76-2.44,1.92-2.44.29,0,.64.06.93.06a1.58,1.58,0,0,0,1.1-.35c.11-2.55,1.68-5.51,1.68-8.12a5,5,0,0,0-.23-1.56c1-.87.46-2.73.81-3.72,1-3,.81-6.78,2.32-9.45a1.64,1.64,0,0,1-.29-1c0-1,1-2.09,1.57-3,1,.46,2.37.81,2.84,2a6,6,0,0,0-.35,2,8.28,8.28,0,0,0,1.91,4.87,2.28,2.28,0,0,0-.17,1.05c0,1.22.58,2.43.58,3.77v.23c2.15,3.6,1.33,8,3.13,11.72,0,.17-.06.29-.06.4,0,1.68,1.11,3.08,1.11,4.7v.52c1.27,2.73,1.16,6.09,2.43,9,.18,1.16,1.05,2.44,1.05,3.71a2.68,2.68,0,0,1-.35,1.28A1.78,1.78,0,0,1,336.09,169.87Zm-7.31-27.08a9.69,9.69,0,0,1-1-3.19c0-.12.05-.29.05-.41-1.21-1.27-1-4.64-1.91-6.09-1.68,5-2.61,13.17-3,18.5,2-.23,4.76.06,7.08-.29C329.77,148.53,328.9,145.57,328.78,142.79Z" transform="translate(-179.55 -124.23)"/><path class="cls-1" d="M354.47,137.16c-.87-.17-1.74,0-2.43-.75,0-.18.06-.29.06-.41a5.7,5.7,0,0,0-4.35-5.68,8.73,8.73,0,0,0-1.22-.06c-4.76,0-9.4,5.1-9.4,9.16,0,4.7,3.19,5.22,6,5.22h2.61c2.08,0,4.29.24,5.68,2,.81,2,3.42,3.36,3.42,5.45a3.63,3.63,0,0,1-.17,1.91,4.25,4.25,0,0,1,.06.87c0,4-4.47,9.57-8.12,9.57a19.77,19.77,0,0,1-5.57-1,11.06,11.06,0,0,1-3.89-2.79c-1-1-.92-2.49-1.62-4.17.7-1.16,1.56-2.26,2.55-2.26.52,0,.93.23,1.45.92.23,1.51-.75,3,.23,4.06,1.74,1.86,4.47,2,6.09,2,3.6,0,5.74-4.58,5.74-7.36,0-1.86-1.68-3.71-2.49-5.05a3.88,3.88,0,0,0-3.07-1.51,3.47,3.47,0,0,0-.76.06.93.93,0,0,0-.4-.06c-.64,0-1.16.35-1.63.35a1.25,1.25,0,0,1-.69-.23,1,1,0,0,1-.7.35c-.58,0-1-.64-1.51-.64a1,1,0,0,0-.75.58,8.47,8.47,0,0,1-5.86-8.12c0-2.26,2-5.86,3.42-7.71a10.9,10.9,0,0,1,9.17-4.58c4,0,7.88,3.3,9.33,6.72C355.29,135,355.29,136.23,354.47,137.16Z" transform="translate(-179.55 -124.23)"/></svg>