<svg id="Layer_1" data-name="Layer 1" xmlns="http://www.w3.org/2000/svg" viewBox="0 0 196.44 42.57"><defs><style>.cls-1{fill:#333;}</style></defs><title>SMALLservices</title><path class="cls-1" d="M199.73,137.16c-.87-.17-1.74,0-2.43-.75,0-.18,0-.29,0-.41a5.7,5.7,0,0,0-4.35-5.68,8.59,8.59,0,0,0-1.21-.06c-4.76,0-9.4,5.1-9.4,9.16,0,4.7,3.19,5.22,6,5.22H191c2.09,0,4.3.24,5.69,2,.81,2,3.42,3.36,3.42,5.45a3.74,3.74,0,0,1-.17,1.91,5.08,5.08,0,0,1,.05.87c0,4-4.46,9.57-8.12,9.57a19.7,19.7,0,0,1-5.56-1,11,11,0,0,1-3.89-2.79c-1-1-.93-2.49-1.62-4.17.69-1.16,1.56-2.26,2.55-2.26.52,0,.93.23,1.45.92.23,1.51-.76,3,.23,4.06,1.74,1.86,4.47,2,6.09,2,3.6,0,5.74-4.58,5.74-7.36,0-1.86-1.68-3.71-2.49-5.05a3.88,3.88,0,0,0-3.08-1.51,3.43,3.43,0,0,0-.75.06,1,1,0,0,0-.41-.06c-.63,0-1.16.35-1.62.35a1.3,1.3,0,0,1-.7-.23,1,1,0,0,1-.69.35c-.58,0-1-.64-1.51-.64a1,1,0,0,0-.75.58,8.45,8.45,0,0,1-5.86-8.12c0-2.26,2-5.86,3.42-7.71a10.89,10.89,0,0,1,9.16-4.58c4,0,7.89,3.3,9.34,6.72C200.54,135,200.54,136.23,199.73,137.16Z" transform="translate(-178.97 -127.25)"/><path class="cls-1" d="M222.41,164.71a4.66,4.66,0,0,1-2.55.52,35.27,35.27,0,0,1-4.53,1.4,19.71,19.71,0,0,0-5.91,2.32c-1.22.34-2.09-.64-2.55-1.57-.53-4.06.11-10-.53-14.15-.69-.47-.69-1.28-1-2,1.8-1.69-.41-3.6.58-5.51.06-1.63-.47-3.83-.29-5.69a3.23,3.23,0,0,1,1.91-3c1.8.58,3.71.17,5.57,0,2.84-.29,5.8-1,8.47-.53l.23.47c.58,1.22-.87,1.74-1.39,2.26-1.8.75-4.12.81-6.32,1a14.51,14.51,0,0,0-4.7.87c-1.22,2.2.4,5.8-.06,8,.06,1,.64,1.16,2,.7,2.38-.53,5.57.23,7.48-1.51a2.29,2.29,0,0,1,2.44,1c.17,2.44-2.61,2-4.06,2.79-2.32.34-5,1.56-7.66,1.1a55.59,55.59,0,0,0,.29,9.16c-.17.47.29,1.28.52,2,1.8-.35,3.6-.93,5.4-1.45a51.58,51.58,0,0,1,6.78-1.68c1,.06,1.22.75,1.74,1.45A4.77,4.77,0,0,1,222.41,164.71Z" transform="translate(-178.97 -127.25)"/><path class="cls-1" d="M245.14,167.21c-2.49-4-6.32-6.91-8.06-11.26-1.16-1-1.8-4.87-3-5.74,0,.93.29,3.48.29,4.87.11,2.5-1.45,6.21.11,8.41-.81,1.28.12,3.25,0,4.64-.06.82-.46,1.45-1.8,1.69-.75-.06-1.33-.87-2-1.22.12-4.93.47-15.72.47-19.2,0-1.39-1.34-.7.05-3.65A21.24,21.24,0,0,1,231,140c-.64-1.45,0-3.3-.52-4.81-1.16.29-2.49,1.51-3.6.29-.05-1.16-.11-2.61,1.28-3,1,0,1.8-.75,2.61-1.62-.75-1.34.06-2.5,1.51-2.73a2.44,2.44,0,0,1,2.26,0c.17.47-.46,2.32-.17,2.73a20.08,20.08,0,0,1,3.94-.7,14.67,14.67,0,0,1,6.5,1.57l.81.75c-.12,1.34.75,2.15.87,3.77a6.6,6.6,0,0,1-1.51,4.47l-2.49,3.48c-3,2.14-3,1.45-6,3.65a73.43,73.43,0,0,0,3.66,7.72,39.35,39.35,0,0,0,6.09,7.65c.34.41,2.26,1.92,2.26,2.38C249.15,167.84,247.06,168.25,245.14,167.21Zm-1.85-32-2.5-2.15c-1.68-.58-5,.53-7,1.11-.06.52-.41,3.07.29,3.65a49.13,49.13,0,0,0-.29,7.95c.23.4.87-1,1.21-.64,3.31-1.22,6.79-2.67,8.12-6,.06-1.28,1.16-1.11.47-2.44Z" transform="translate(-178.97 -127.25)"/><path class="cls-1" d="M275,140A32.43,32.43,0,0,0,271,151c-1,2.79-2.08,5.4-3.07,8a82.08,82.08,0,0,0-3,8.18c-.75.69-.52,2.2-1.8,2.49-2.37-.46-3.13-3.31-3.53-5.63.34-1-.58-1.74-.29-2.49-3.31-6.38-3.6-14-6.5-20.65a9.77,9.77,0,0,1-1.28-3.48c-.46-.23-.17-.81-.17-1.33.58-.81,1.62-2.49,3-1.51,2.26,4.18,1.33,9.11,4,13.17-.06.29.23.75-.23,1,1.51,3.19,2,6.85,3.54,10.15,1.27.64.63,2.55,2,2.79,3.88-7.49,5.74-15.72,8.18-23.78,2.26-2.27.23-7.72,4.93-7.6l.81,1C277.45,134.55,274.67,136.64,275,140Z" transform="translate(-178.97 -127.25)"/><path class="cls-1" d="M298.1,166.22c-1.92.06-4.64-.81-5.92.75-1.62.18-2.32-.69-3.3-.75-1.16-.06-2.44.17-3.66.23-1.45.06-2.9.18-3.65-1.62-.23-.58.52-.76.75-1.16a11.37,11.37,0,0,1,3-.52,28,28,0,0,1,3.89,0c1.39-.87-.06-1.4.81-2.27l-.76-8.87-.92-11.08c-.7-1.1-2-.46-3.37-.23a3.38,3.38,0,0,1-2.49-.17c-.58-.82-1.86-.47-2-1.69a2.43,2.43,0,0,1,2.38-1.5c1.62-.12,3.53.4,4.93-.18a3.92,3.92,0,0,1,3.59-.46,26.64,26.64,0,0,1,5.74-.23,4.43,4.43,0,0,1,1.8.46c.87,2.32-.52,2.15-1.8,2.49s-4.69-.63-5.51.82c.35,4.4.12,9,1.45,13-.52,1.1-.05,8.7.53,9.68.69.23,3.42-.11,4.4,0a1.78,1.78,0,0,1,1.45,1A1.88,1.88,0,0,1,298.1,166.22Z" transform="translate(-178.97 -127.25)"/><path class="cls-1" d="M326.28,162.16c-.29,2-2.9,2.55-4.58,4.23-1.33,1.4-3.71,1.22-4.7,2.15a6.12,6.12,0,0,1-1.85.23c-4.76,0-7.6-2.14-9.16-5.28a17.37,17.37,0,0,1-2.44-9.86c0-7.94,2.55-11.07,3.36-15a8.11,8.11,0,0,0,1.8-2.49c2.15-1.69,5.86-3.48,8.24-3.48a10.1,10.1,0,0,1,6.9,2.84c.35,1.39,2.14,1.91,2.14,3.54a1.79,1.79,0,0,1-1.62,1.91,1,1,0,0,1-.7-.29c-2-1.74-2.14-4.7-5.85-4.7a10.29,10.29,0,0,0-1.69.23c-7.82,1.92-9.45,11.14-9.45,17.64,0,3.77,1.16,8.87,3.95,10.78a9.58,9.58,0,0,0,3.82.64c3.77,0,8.59-2.26,9.8-4.41a1,1,0,0,1,.76-.34C325.7,160.54,326.23,161.41,326.28,162.16Z" transform="translate(-178.97 -127.25)"/><path class="cls-1" d="M348.21,164.71a4.68,4.68,0,0,1-2.55.52,35.27,35.27,0,0,1-4.53,1.4,19.6,19.6,0,0,0-5.91,2.32c-1.22.34-2.09-.64-2.55-1.57-.53-4.06.11-10-.53-14.15-.69-.47-.69-1.28-1-2,1.8-1.69-.41-3.6.58-5.51.06-1.63-.47-3.83-.29-5.69a3.23,3.23,0,0,1,1.91-3c1.8.58,3.71.17,5.57,0,2.84-.29,5.8-1,8.47-.53l.23.47c.58,1.22-.87,1.74-1.39,2.26-1.8.75-4.12.81-6.32,1a14.51,14.51,0,0,0-4.7.87c-1.22,2.2.4,5.8-.06,8,.06,1,.64,1.16,2,.7,2.38-.53,5.57.23,7.48-1.51a2.29,2.29,0,0,1,2.44,1c.17,2.44-2.61,2-4.06,2.79-2.32.34-5,1.56-7.66,1.1a53.48,53.48,0,0,0,.29,9.16c-.17.47.29,1.28.52,2,1.8-.35,3.6-.93,5.4-1.45a51.58,51.58,0,0,1,6.78-1.68c1,.06,1.22.75,1.74,1.45A4.77,4.77,0,0,1,348.21,164.71Z" transform="translate(-178.97 -127.25)"/><path class="cls-1" d="M374.25,137.16c-.87-.17-1.74,0-2.44-.75,0-.18.06-.29.06-.41a5.7,5.7,0,0,0-4.35-5.68,8.66,8.66,0,0,0-1.22-.06c-4.75,0-9.39,5.1-9.39,9.16,0,4.7,3.19,5.22,6,5.22h2.61c2.09,0,4.29.24,5.69,2,.81,2,3.42,3.36,3.42,5.45a3.64,3.64,0,0,1-.18,1.91,4.25,4.25,0,0,1,.06.87c0,4-4.46,9.57-8.12,9.57a19.83,19.83,0,0,1-5.57-1,11,11,0,0,1-3.88-2.79c-1-1-.93-2.49-1.63-4.17.7-1.16,1.57-2.26,2.56-2.26.52,0,.92.23,1.45.92.23,1.51-.76,3,.23,4.06,1.74,1.86,4.46,2,6.09,2,3.59,0,5.74-4.58,5.74-7.36,0-1.86-1.68-3.71-2.49-5.05a3.88,3.88,0,0,0-3.08-1.51,3.43,3.43,0,0,0-.75.06,1,1,0,0,0-.41-.06c-.64,0-1.16.35-1.62.35a1.26,1.26,0,0,1-.7-.23,1,1,0,0,1-.69.35c-.58,0-1-.64-1.51-.64a1,1,0,0,0-.76.58,8.46,8.46,0,0,1-5.85-8.12c0-2.26,2-5.86,3.42-7.71a10.89,10.89,0,0,1,9.16-4.58c4,0,7.89,3.3,9.34,6.72C375.06,135,375.06,136.23,374.25,137.16Z" transform="translate(-178.97 -127.25)"/></svg>