<svg id="Layer_1" data-name="Layer 1" xmlns="http://www.w3.org/2000/svg" viewBox="0 0 205.06 48.87"><defs><style>.cls-1{fill:#333;}</style></defs><title>sMALLcontact</title><path class="cls-1" d="M202.28,162.16c-.29,2-2.9,2.55-4.58,4.23-1.33,1.4-3.71,1.22-4.7,2.15a6.12,6.12,0,0,1-1.85.23c-4.76,0-7.6-2.14-9.17-5.28a17.46,17.46,0,0,1-2.43-9.86c0-7.94,2.55-11.07,3.36-15a8.28,8.28,0,0,0,1.8-2.49c2.15-1.69,5.86-3.48,8.24-3.48a10.1,10.1,0,0,1,6.9,2.84c.35,1.39,2.14,1.91,2.14,3.54a1.79,1.79,0,0,1-1.62,1.91,1,1,0,0,1-.7-.29c-2-1.74-2.14-4.7-5.85-4.7a10.29,10.29,0,0,0-1.69.23c-7.83,1.92-9.45,11.14-9.45,17.64,0,3.77,1.16,8.87,3.94,10.78a9.66,9.66,0,0,0,3.83.64c3.77,0,8.59-2.26,9.8-4.41a1,1,0,0,1,.76-.34C201.7,160.54,202.23,161.41,202.28,162.16Z" transform="translate(-179.55 -124.23)"/><path class="cls-1" d="M241.08,154.62c.59,4.12-2.66,5.86-3.94,9.11-1.8,1-3.54,3.07-5.62,3.65s-4.12,1.68-6.44,2c-1.92-.29-4.87.58-6.67-.75-4.58-.18-8.53-4.82-9.8-8.88-2.27-2.84-1.69-6.9-2.5-10.38.7-6,2.84-12,8.35-15.48,4.41-.93,7.95-4,12.88-3.72,4.47-.11,9.1,1.68,11.08,5.92,2.37,1.1,2.43,3.59,3.65,5.45C242.13,145.75,243.23,151,241.08,154.62Zm-4.69-16.53c-2.5-3.94-6.61-5.05-11.08-4.7-4.87.41-9,3.42-12.76,6.21-.41,1.68-1.68,3-2.15,4.7a21.29,21.29,0,0,0,.58,13.28,16,16,0,0,0,4.3,5.91c2.95,3.72,8.35,2.15,12.52,2.15,4.53-1.57,8.88-6.09,10.62-10.56C239.58,149.52,240.79,142.5,236.39,138.09Z" transform="translate(-179.55 -124.23)"/><path class="cls-1" d="M265.44,168c-2.37-2-3.3-5.22-5-7.83-3.54-4.18-5.45-10.21-9-14.39-1.1,3,1.51,6.62.81,9.46.06,4.46,1.91,8.35,1.28,12.87-.18,1.28,2.08,4.82-.41,4.88-.41.29-1.62-.12-2-.64a21.44,21.44,0,0,0-.52-4.06c-1-1.51-.7-3.6-.82-5.92-.52-7.54-2.2-13.63-2.14-21.46-.52-.93-1.1-2.14-.52-3.13-.35-2-.7-4.58.75-6.26,1.74.4,1.68,2.43,2.61,3.53.93,3.89,2.9,6.38,4.41,10,1.45,1.39,1.45,3.48,3,4.93,1.1,1.39,2.37,5.68,3.53,6.2.58.76,1.51,3.48,2.73,3.89.64-2.49-.46-6.21-.12-9.86.82-3.19-.4-12.7.18-16-.7-1.51-.87-3.71,1.21-4.87.7-.06,1.57.17,1.63,2.26.35,3.66-.06,6.32.46,11.54-1,3.08,0,8.36-.63,11.26a17.59,17.59,0,0,1,0,6c.69,1.74.58,3.65,1,5.45C268.11,166.74,267.71,168.77,265.44,168Z" transform="translate(-179.55 -124.23)"/><path class="cls-1" d="M303,132.58c.58.64-.23,2-.75,2.26-4.12.76-7.78-.52-12-.06a3.16,3.16,0,0,0-1.1,1.22c-.58,1.22-.29,2.5-.7,3.95l.18.29a61.92,61.92,0,0,0,.06,11c.17,2.38.34,5.86.4,7.83.06,1,.58,2.14.7,3.25a2.51,2.51,0,0,1-.93,2.37c0,.64.12,1.63-.76,1.69a2.21,2.21,0,0,1-1.45-2.15,7,7,0,0,0-.63-3.13c.46-2.26-.7-6,0-8.47-.41-4.64-.23-11.54-.41-16.47,0-.7-.87-.76-1.45-.7-.93.81-2.32-.46-3.54.52-1.85-1.1-4.11-.11-6.09-.23a3.19,3.19,0,0,1-2.43-1.27,3.25,3.25,0,0,1,1.68-2.27,83.19,83.19,0,0,0,14.38-.46c2.61-.87,9.34.64,14.15.29l.76.52Z" transform="translate(-179.55 -124.23)"/><path class="cls-1" d="M323.21,169.87a1.75,1.75,0,0,1-1.16-.52c-2.43-4.41-1.74-10-3.71-14.32-.29-.06-.35-.58-.81-.58s-.52.23-.81.23a20.72,20.72,0,0,1-2.61.11h-3c-1.28,0-2.49,0-2.49.87,0,.18,0,.41,0,.58s0,.47-.58.76c-.29,4.29-1.21,7.71-1.85,11.66-.47.63-1.1,1.5-1.74,1.5-.35,0-.7-.29-1.05-1l-.63-.76c.17-.87.52-1.16.69-1.91a1.73,1.73,0,0,0-.17-.7c.06-.4.29-.75.29-1s-.06-.7-.06-1.1c.64-3.48,1-4.88,1.74-8.59a1.54,1.54,0,0,0-.52-.06c-.35,0-.7.06-1.05.06a1.17,1.17,0,0,1-1.33-1.33c0-1.45.75-2.44,1.91-2.44.29,0,.64.06.93.06a1.55,1.55,0,0,0,1.1-.35c.12-2.55,1.69-5.51,1.69-8.12a4.7,4.7,0,0,0-.24-1.56c1-.87.47-2.73.82-3.72,1-3,.81-6.78,2.32-9.45a1.57,1.57,0,0,1-.29-1c0-1,1-2.09,1.56-3,1,.46,2.38.81,2.84,2a6,6,0,0,0-.34,2,8.28,8.28,0,0,0,1.91,4.87,2.16,2.16,0,0,0-.18,1.05c0,1.22.58,2.43.58,3.77v.23c2.15,3.6,1.34,8,3.14,11.72,0,.17-.06.29-.06.4,0,1.68,1.1,3.08,1.1,4.7v.52c1.28,2.73,1.16,6.09,2.44,9,.17,1.16,1,2.44,1,3.71a2.68,2.68,0,0,1-.35,1.28A1.76,1.76,0,0,1,323.21,169.87Zm-7.31-27.08a9.93,9.93,0,0,1-1-3.19c0-.12.06-.29.06-.41-1.22-1.27-1-4.64-1.92-6.09-1.68,5-2.6,13.17-3,18.5,2-.23,4.76.06,7.07-.29C316.89,148.53,316,145.57,315.9,142.79Z" transform="translate(-179.55 -124.23)"/><path class="cls-1" d="M350.3,162.16c-.29,2-2.9,2.55-4.58,4.23-1.34,1.4-3.71,1.22-4.7,2.15a6.15,6.15,0,0,1-1.86.23c-4.75,0-7.59-2.14-9.16-5.28a17.45,17.45,0,0,1-2.44-9.86c0-7.94,2.56-11.07,3.37-15a8.46,8.46,0,0,0,1.8-2.49c2.14-1.69,5.85-3.48,8.23-3.48a10.06,10.06,0,0,1,6.9,2.84c.35,1.39,2.15,1.91,2.15,3.54a1.79,1.79,0,0,1-1.62,1.91.92.92,0,0,1-.7-.29c-2-1.74-2.15-4.7-5.86-4.7a10.32,10.32,0,0,0-1.68.23c-7.83,1.92-9.45,11.14-9.45,17.64,0,3.77,1.16,8.87,3.94,10.78a9.63,9.63,0,0,0,3.83.64c3.77,0,8.58-2.26,9.8-4.41a1,1,0,0,1,.75-.34C349.72,160.54,350.24,161.41,350.3,162.16Z" transform="translate(-179.55 -124.23)"/><path class="cls-1" d="M384.4,132.58c.58.64-.23,2-.75,2.26-4.12.76-7.77-.52-12-.06a3.16,3.16,0,0,0-1.1,1.22c-.58,1.22-.29,2.5-.69,3.95l.17.29a62.89,62.89,0,0,0,.06,11c.17,2.38.35,5.86.4,7.83.06,1,.58,2.14.7,3.25a2.49,2.49,0,0,1-.93,2.37c0,.64.12,1.63-.75,1.69a2.18,2.18,0,0,1-1.45-2.15,7.11,7.11,0,0,0-.64-3.13c.46-2.26-.7-6,0-8.47-.41-4.64-.23-11.54-.41-16.47,0-.7-.87-.76-1.45-.7-.92.81-2.32-.46-3.53.52-1.86-1.1-4.12-.11-6.09-.23a3.21,3.21,0,0,1-2.44-1.27,3.25,3.25,0,0,1,1.68-2.27,83.3,83.3,0,0,0,14.39-.46c2.61-.87,9.33.64,14.15.29l.75.52Z" transform="translate(-179.55 -124.23)"/></svg>