<svg id="Layer_1" data-name="Layer 1" xmlns="http://www.w3.org/2000/svg" viewBox="0 0 352.24 76.34"><defs><style>.cls-1{fill:#ca9a2c;}</style></defs><title>Untitled-1</title><path class="cls-1" d="M69.73,70.15c-1.56-.31-3.12,0-4.37-1.35,0-.31.1-.52.1-.73a10.23,10.23,0,0,0-7.8-10.19,15.22,15.22,0,0,0-2.18-.11c-8.53,0-16.85,9.16-16.85,16.44,0,8.42,5.72,9.36,10.71,9.36H54c3.75,0,7.7.41,10.19,3.53,1.46,3.54,6.14,6,6.14,9.78,0,.94.31,2.39-.31,3.43a8.18,8.18,0,0,1,.1,1.56c0,7.07-8,17.16-14.56,17.16a35.21,35.21,0,0,1-10-1.87,19.9,19.9,0,0,1-7-5c-1.77-1.87-1.66-4.47-2.91-7.49,1.25-2.08,2.81-4.06,4.57-4.06.94,0,1.67.42,2.6,1.67.42,2.7-1.35,5.3.42,7.28,3.12,3.33,8,3.64,10.92,3.64,6.45,0,10.3-8.22,10.3-13.21,0-3.33-3-6.66-4.48-9a6.93,6.93,0,0,0-5.51-2.7,6.66,6.66,0,0,0-1.35.1,1.84,1.84,0,0,0-.73-.1c-1.14,0-2.08.62-2.91.62a2.18,2.18,0,0,1-1.25-.42,1.78,1.78,0,0,1-1.25.63c-1,0-1.76-1.15-2.7-1.15A1.73,1.73,0,0,0,43,89,15.18,15.18,0,0,1,32.49,74.41c0-4,3.64-10.5,6.14-13.83a19.56,19.56,0,0,1,16.43-8.21c7.18,0,14.15,5.92,16.75,12.06C71.18,66.3,71.18,68.49,69.73,70.15Z" transform="translate(-32.49 -52.37)"/><path class="cls-1" d="M110.39,119.55a8.47,8.47,0,0,1-4.58.94A60.06,60.06,0,0,1,97.7,123c-3.74,1-7.59,2.08-10.61,4.16-2.18.63-3.74-1.14-4.57-2.8-.94-7.28.2-18-.94-25.38-1.25-.83-1.25-2.29-1.77-3.54,3.23-3-.73-6.45,1-9.88.11-2.91-.83-6.86-.52-10.19.21-2.39,1-4.37,3.43-5.41,3.23,1,6.66.31,10,0,5.1-.52,10.4-1.77,15.18-.93l.42.83c1,2.18-1.56,3.12-2.5,4-3.22,1.36-7.38,1.46-11.33,1.77a26.45,26.45,0,0,0-8.43,1.56c-2.18,4,.73,10.4-.1,14.35.1,1.77,1.14,2.09,3.64,1.25,4.26-.93,10,.42,13.42-2.7A4.12,4.12,0,0,1,108.41,92c.32,4.37-4.68,3.64-7.28,5-4.16.63-8.94,2.81-13.73,2-.2,3.64-.2,12.48.52,16.43-.31.83.52,2.29.94,3.64,3.22-.62,6.45-1.66,9.67-2.6a89.62,89.62,0,0,1,12.17-3c1.77.1,2.19,1.35,3.12,2.6A8.63,8.63,0,0,1,110.39,119.55Z" transform="translate(-32.49 -52.37)"/><path class="cls-1" d="M151.16,124c-4.48-7.17-11.34-12.37-14.46-20.17-2.08-1.77-3.22-8.74-5.41-10.3,0,1.67.52,6.24.52,8.74.21,4.47-2.6,11.13.21,15.08-1.46,2.29.21,5.82,0,8.32-.1,1.45-.83,2.6-3.22,3-1.36-.1-2.4-1.56-3.54-2.18.21-8.84.83-28.18.83-34.43,0-2.49-2.39-1.24.11-6.55-.42-2.39-.94-7.8-.42-10.29-1.14-2.6,0-5.93-.94-8.64-2.08.52-4.47,2.71-6.44.52-.11-2.08-.21-4.68,2.28-5.3,1.88,0,3.23-1.35,4.68-2.91-1.35-2.39.11-4.47,2.71-4.89a4.3,4.3,0,0,1,4.05,0c.32.83-.83,4.16-.31,4.89a36.19,36.19,0,0,1,7.07-1.25,26,26,0,0,1,11.65,2.81L152,61.83c-.21,2.39,1.35,3.85,1.56,6.76.1,2.5-.94,6.45-2.71,8l-4.47,6.24c-5.3,3.85-5.41,2.6-10.71,6.55,2.29,5,4.06,9.78,6.55,13.83A71.45,71.45,0,0,0,153.13,117c.63.73,4.06,3.43,4.06,4.27C158.33,125.17,154.59,125.9,151.16,124Zm-3.33-57.41-4.47-3.84c-3-1-9,.93-12.59,2-.1.94-.73,5.51.52,6.55a89.9,89.9,0,0,0-.52,14.25c.42.73,1.56-1.77,2.19-1.14,5.92-2.19,12.16-4.79,14.56-10.82.1-2.29,2.08-2,.83-4.37Z" transform="translate(-32.49 -52.37)"/><path class="cls-1" d="M204.61,75.14c-3.43,6.24-6.13,12.69-7.17,19.87-1.77,5-3.75,9.67-5.52,14.35-1.87,4.89-3.95,9.57-5.3,14.66-1.35,1.25-.94,4-3.22,4.48-4.27-.84-5.62-5.93-6.35-10.09.63-1.77-1-3.12-.52-4.47-5.93-11.44-6.45-25.17-11.65-37a17.5,17.5,0,0,1-2.28-6.24c-.84-.42-.32-1.46-.32-2.39,1-1.46,2.92-4.47,5.31-2.71,4,7.49,2.39,16.33,7.17,23.61-.1.52.42,1.35-.41,1.77,2.7,5.72,3.53,12.27,6.34,18.2,2.29,1.15,1.15,4.58,3.54,5,7-13.41,10.29-28.18,14.66-42.64,4.06-4,.42-13.83,8.84-13.62l1.46,1.87C209.08,65.47,204.09,69.21,204.61,75.14Z" transform="translate(-32.49 -52.37)"/><path class="cls-1" d="M246.11,122.26c-3.44.1-8.32-1.46-10.61,1.35-2.91.31-4.16-1.25-5.93-1.35-2.08-.11-4.37.31-6.55.41-2.6.11-5.2.31-6.55-2.91-.42-1,.93-1.35,1.35-2.08a21.16,21.16,0,0,1,5.3-.94,54,54,0,0,1,7,0c2.5-1.56-.1-2.49,1.46-4l-1.36-15.91-1.66-19.87c-1.25-2-3.64-.83-6-.42-1.56.32-3.12.52-4.47-.31-1-1.45-3.33-.83-3.64-3,.83-2,2.39-2.6,4.26-2.71,2.91-.21,6.34.73,8.84-.31,1.87-1,4.16-1.87,6.45-.83a48.06,48.06,0,0,1,10.29-.42,8.33,8.33,0,0,1,3.23.83c1.56,4.16-.94,3.85-3.23,4.48-2.39.41-8.42-1.15-9.88,1.45.63,7.91.21,16.23,2.61,23.4-.94,2-.11,15.6.93,17.37,1.25.42,6.14-.21,7.9,0a3.23,3.23,0,0,1,2.6,1.77A3.37,3.37,0,0,1,246.11,122.26Z" transform="translate(-32.49 -52.37)"/><path class="cls-1" d="M296.65,115c-.52,3.53-5.2,4.57-8.22,7.59-2.39,2.49-6.65,2.18-8.42,3.85a10.88,10.88,0,0,1-3.33.41c-8.53,0-13.62-3.85-16.43-9.46-2.5-4.79-4.37-8.32-4.37-17.68,0-14.25,4.58-19.87,6-26.84a14.82,14.82,0,0,0,3.23-4.47c3.84-3,10.5-6.24,14.77-6.24a18.06,18.06,0,0,1,12.37,5.1c.63,2.49,3.85,3.43,3.85,6.34,0,1.46-.94,3.43-2.91,3.43a1.64,1.64,0,0,1-1.25-.52c-3.54-3.12-3.85-8.42-10.51-8.42a17.18,17.18,0,0,0-3,.42c-14,3.43-16.95,20-16.95,31.61,0,6.76,2.08,15.92,7.07,19.35a17.39,17.39,0,0,0,6.86,1.14c6.76,0,15.4-4,17.58-7.9a1.83,1.83,0,0,1,1.35-.63C295.61,112.06,296.55,113.62,296.65,115Z" transform="translate(-32.49 -52.37)"/><path class="cls-1" d="M336,119.55a8.47,8.47,0,0,1-4.58.94,60.06,60.06,0,0,1-8.11,2.49c-3.74,1-7.59,2.08-10.61,4.16-2.18.63-3.74-1.14-4.57-2.8-.94-7.28.21-18-.94-25.38-1.25-.83-1.25-2.29-1.77-3.54,3.23-3-.72-6.45,1-9.88.11-2.91-.83-6.86-.52-10.19.21-2.39,1-4.37,3.44-5.41,3.22,1,6.65.31,10,0,5.1-.52,10.4-1.77,15.18-.93l.42.83c1,2.18-1.56,3.12-2.5,4-3.22,1.36-7.38,1.46-11.33,1.77a26.51,26.51,0,0,0-8.43,1.56c-2.18,4,.73,10.4-.1,14.35.1,1.77,1.14,2.09,3.64,1.25,4.26-.93,10,.42,13.42-2.7A4.12,4.12,0,0,1,334,92c.32,4.37-4.68,3.64-7.27,5-4.17.63-8.95,2.81-13.73,2-.21,3.64-.21,12.48.52,16.43-.32.83.52,2.29.93,3.64,3.23-.62,6.45-1.66,9.67-2.6a89.62,89.62,0,0,1,12.17-3c1.77.1,2.19,1.35,3.12,2.6A8.57,8.57,0,0,1,336,119.55Z" transform="translate(-32.49 -52.37)"/><path class="cls-1" d="M382.66,70.15c-1.56-.31-3.12,0-4.37-1.35,0-.31.1-.52.1-.73a10.23,10.23,0,0,0-7.8-10.19,15.22,15.22,0,0,0-2.18-.11c-8.53,0-16.85,9.16-16.85,16.44,0,8.42,5.72,9.36,10.71,9.36H367c3.75,0,7.7.41,10.19,3.53,1.46,3.54,6.14,6,6.14,9.78,0,.94.31,2.39-.31,3.43a8.18,8.18,0,0,1,.1,1.56c0,7.07-8,17.16-14.56,17.16a35.21,35.21,0,0,1-10-1.87,19.9,19.9,0,0,1-7-5c-1.77-1.87-1.66-4.47-2.91-7.49,1.25-2.08,2.81-4.06,4.57-4.06.94,0,1.67.42,2.6,1.67.42,2.7-1.35,5.3.42,7.28,3.12,3.33,8,3.64,10.92,3.64,6.45,0,10.3-8.22,10.3-13.21,0-3.33-3-6.66-4.48-9a6.93,6.93,0,0,0-5.51-2.7,6.66,6.66,0,0,0-1.35.1,1.84,1.84,0,0,0-.73-.1c-1.14,0-2.08.62-2.91.62a2.18,2.18,0,0,1-1.25-.42,1.78,1.78,0,0,1-1.25.63c-1,0-1.76-1.15-2.7-1.15a1.73,1.73,0,0,0-1.35,1,15.18,15.18,0,0,1-10.51-14.56c0-4,3.64-10.5,6.14-13.83A19.56,19.56,0,0,1,368,52.37c7.18,0,14.15,5.92,16.75,12.06C384.11,66.3,384.11,68.49,382.66,70.15Z" transform="translate(-32.49 -52.37)"/></svg>